<?xml version="1.0" encoding="UTF-8" standalone="no"?>
<!-- Created with Inkscape (http://www.inkscape.org/) -->

<svg
   width="210mm"
   height="297mm"
   viewBox="0 0 210 297"
   version="1.1"
   id="svg1"
   xml:space="preserve"
   inkscape:version="1.4.3 (0d15f75042, 2025-12-25)"
   sodipodi:docname="logo.svg"
   xmlns:inkscape="http://www.inkscape.org/namespaces/inkscape"
   xmlns:sodipodi="http://sodipodi.sourceforge.net/DTD/sodipodi-0.dtd"
   xmlns="http://www.w3.org/2000/svg"
   xmlns:svg="http://www.w3.org/2000/svg"><sodipodi:namedview
     id="namedview1"
     pagecolor="#ffffff"
     bordercolor="#000000"
     borderopacity="0.25"
     inkscape:showpageshadow="2"
     inkscape:pageopacity="0.0"
     inkscape:pagecheckerboard="0"
     inkscape:deskcolor="#d1d1d1"
     inkscape:document-units="mm"
     inkscape:zoom="0.75925058"
     inkscape:cx="474.81031"
     inkscape:cy="618.37292"
     inkscape:window-width="1920"
     inkscape:window-height="1046"
     inkscape:window-x="0"
     inkscape:window-y="0"
     inkscape:window-maximized="1"
     inkscape:current-layer="layer1" /><defs
     id="defs1" /><g
     inkscape:label="Capa 1"
     inkscape:groupmode="layer"
     id="layer1"><path
       id="path8"
       style="fill:#000000;stroke-width:0.264583"
       d="M 200.32252,34.149662 C 163.78531,112.79992 107.89422,176.41167 26.779622,221.63124 c -0.17138,0.21607 -0.340583,0.43054 -0.507463,0.64286 5.020567,6.02981 10.983669,11.34883 17.697111,15.7856 C 99.937715,201.02638 189.88383,133.05101 200.32252,34.149662 Z m 2.43913,50.529216 C 157.47391,161.72837 122.42041,203.07165 53.267927,241.64707 c 9.071726,4.38183 18.94043,7.20942 29.120703,8.34368 50.11715,-34.54057 93.78293,-75.41523 120.37302,-165.311872 z M 86.692244,96.782532 C 43.143645,96.782474 7.8404365,132.08545 7.8402095,175.63405 c 4.5e-6,15.89795 4.8055695,31.42462 13.7862385,44.54302 l 0.001,0.001 0.06563,0.14831 0.02946,-0.01 c 0.0356,0.0519 0.07125,0.10374 0.10697,0.15555 0.243653,-0.14735 0.484222,-0.29298 0.722437,-0.43718 h 5.16e-4 l 4.189925,-1.42059 c 0.01416,0.0169 0.02657,0.0353 0.03721,0.0548 l 10.802958,-7.49205 0.522448,-44.25673 16.552995,0.3483 -0.348299,25.26461 5.74952,2.61379 8.886279,-7.49257 0.348816,-45.12799 h 16.204179 l 0.17415,24.91631 5.227067,2.61379 9.409251,-8.18968 0.17415,-43.90843 16.20418,-0.17415 v 20.38635 l 6.09833,3.31039 19.86339,-22.65133 c -2.25991,-1.71783 -4.51571,-3.324 -6.76548,-4.82192 C 121.91289,102.85615 104.56778,96.782486 86.692244,96.782532 Z M 193.00462,145.66275 c -36.18531,60.71461 -62.02248,83.45235 -99.932925,105.77029 h 0.01757 c 17.544835,-8e-5 34.651955,-5.01841 48.933975,-14.35468 l 5.60147,-5.18019 c 18.52168,-19.04786 30.85422,-41.21298 45.37987,-86.23545 z"
       sodipodi:nodetypes="ccccccccccccccccccccccccccccccccccccccccscccc" /></g></svg>
